<svg width="100%" height="100%" viewBox="0 0 148 26">
    <path d="M12.827 25.462C10.407 25.462 8.229 24.956 6.293 23.944C4.379 22.91 2.872 21.48 1.772 19.654C0.672 17.828 0.122 15.76 0.122 13.45C0.122 11.14 0.672 9.072 1.772 7.246C2.872 5.42 4.379 4.001 6.293 2.989C8.229 1.955 10.407 1.438 12.827 1.438C14.939 1.438 16.842 1.812 18.536 2.56C20.23 3.308 21.638 4.386 22.76 5.794L18.602 9.556C17.106 7.752 15.291 6.85 13.157 6.85C11.903 6.85 10.781 7.125 9.791 7.675C8.823 8.225 8.064 9.006 7.514 10.018C6.986 11.008 6.722 12.152 6.722 13.45C6.722 14.748 6.986 15.903 7.514 16.915C8.064 17.905 8.823 18.675 9.791 19.225C10.781 19.775 11.903 20.05 13.157 20.05C15.291 20.05 17.106 19.148 18.602 17.344L22.76 21.106C21.638 22.514 20.23 23.592 18.536 24.34C16.842 25.088 14.939 25.462 12.827 25.462ZM32.6048 6.817C35.5748 6.817 37.8408 7.499 39.4028 8.863C40.9648 10.205 41.7458 12.273 41.7458 15.067V25H35.9048V22.69C35.0028 24.428 33.2428 25.297 30.6248 25.297C29.2388 25.297 28.0398 25.055 27.0278 24.571C26.0158 24.087 25.2458 23.438 24.7178 22.624C24.2118 21.788 23.9588 20.842 23.9588 19.786C23.9588 18.092 24.6078 16.783 25.9058 15.859C27.2038 14.913 29.2058 14.44 31.9118 14.44H35.4758C35.3658 12.548 34.1008 11.602 31.6808 11.602C30.8228 11.602 29.9538 11.745 29.0738 12.031C28.1938 12.295 27.4458 12.669 26.8298 13.153L24.7178 8.896C25.7078 8.236 26.9068 7.73 28.3148 7.378C29.7448 7.004 31.1748 6.817 32.6048 6.817ZM32.3738 21.337C33.0998 21.337 33.7378 21.161 34.2878 20.809C34.8378 20.457 35.2338 19.94 35.4758 19.258V17.707H32.7698C30.9438 17.707 30.0308 18.312 30.0308 19.522C30.0308 20.072 30.2398 20.512 30.6578 20.842C31.0758 21.172 31.6478 21.337 32.3738 21.337ZM51.8745 25.297C50.3785 25.297 48.9045 25.132 47.4525 24.802C46.0005 24.45 44.8345 23.999 43.9545 23.449L45.8355 19.159C46.6495 19.665 47.6175 20.072 48.7395 20.38C49.8615 20.666 50.9725 20.809 52.0725 20.809C53.0845 20.809 53.7995 20.71 54.2175 20.512C54.6575 20.292 54.8775 19.984 54.8775 19.588C54.8775 19.192 54.6135 18.917 54.0855 18.763C53.5795 18.587 52.7655 18.422 51.6435 18.268C50.2135 18.092 48.9925 17.861 47.9805 17.575C46.9905 17.289 46.1325 16.761 45.4065 15.991C44.6805 15.221 44.3175 14.143 44.3175 12.757C44.3175 11.613 44.6585 10.601 45.3405 9.721C46.0225 8.819 47.0125 8.115 48.3105 7.609C49.6305 7.081 51.2035 6.817 53.0295 6.817C54.3275 6.817 55.6145 6.949 56.8905 7.213C58.1665 7.477 59.2335 7.851 60.0915 8.335L58.2105 12.592C56.6265 11.712 54.9105 11.272 53.0625 11.272C52.0725 11.272 51.3465 11.393 50.8845 11.635C50.4225 11.855 50.1915 12.152 50.1915 12.526C50.1915 12.944 50.4445 13.241 50.9505 13.417C51.4565 13.571 52.2925 13.736 53.4585 13.912C54.9325 14.132 56.1535 14.385 57.1215 14.671C58.0895 14.957 58.9255 15.485 59.6295 16.255C60.3555 17.003 60.7185 18.059 60.7185 19.423C60.7185 20.545 60.3775 21.557 59.6955 22.459C59.0135 23.339 58.0015 24.032 56.6595 24.538C55.3395 25.044 53.7445 25.297 51.8745 25.297ZM74.7394 6.817C76.9614 6.817 78.7434 7.477 80.0854 8.797C81.4494 10.117 82.1314 12.108 82.1314 14.77V25H75.8614V15.793C75.8614 13.351 74.8824 12.13 72.9244 12.13C71.8464 12.13 70.9774 12.482 70.3174 13.186C69.6794 13.89 69.3604 14.946 69.3604 16.354V25H63.0904V0.513999H69.3604V8.764C70.0424 8.126 70.8454 7.642 71.7694 7.312C72.6934 6.982 73.6834 6.817 74.7394 6.817ZM93.3609 6.817C96.3309 6.817 98.5969 7.499 100.159 8.863C101.721 10.205 102.502 12.273 102.502 15.067V25H96.6609V22.69C95.7589 24.428 93.9989 25.297 91.3809 25.297C89.9949 25.297 88.7959 25.055 87.7839 24.571C86.7719 24.087 86.0019 23.438 85.4739 22.624C84.9679 21.788 84.7149 20.842 84.7149 19.786C84.7149 18.092 85.3639 16.783 86.6619 15.859C87.9599 14.913 89.9619 14.44 92.6679 14.44H96.2319C96.1219 12.548 94.8569 11.602 92.4369 11.602C91.5789 11.602 90.7099 11.745 89.8299 12.031C88.9499 12.295 88.2019 12.669 87.5859 13.153L85.4739 8.896C86.4639 8.236 87.6629 7.73 89.0709 7.378C90.5009 7.004 91.9309 6.817 93.3609 6.817ZM93.1299 21.337C93.8559 21.337 94.4939 21.161 95.0439 20.809C95.5939 20.457 95.9899 19.94 96.2319 19.258V17.707H93.5259C91.6999 17.707 90.7869 18.312 90.7869 19.522C90.7869 20.072 90.9959 20.512 91.4139 20.842C91.8319 21.172 92.4039 21.337 93.1299 21.337ZM125.395 0.513999V25H119.422V23.218C118.256 24.604 116.507 25.297 114.175 25.297C112.547 25.297 111.062 24.923 109.72 24.175C108.378 23.405 107.311 22.316 106.519 20.908C105.749 19.5 105.364 17.872 105.364 16.024C105.364 14.176 105.749 12.559 106.519 11.173C107.311 9.765 108.378 8.687 109.72 7.939C111.062 7.191 112.547 6.817 114.175 6.817C116.309 6.817 117.959 7.433 119.125 8.665V0.513999H125.395ZM115.495 20.314C116.573 20.314 117.464 19.94 118.168 19.192C118.872 18.422 119.224 17.366 119.224 16.024C119.224 14.704 118.872 13.67 118.168 12.922C117.486 12.174 116.595 11.8 115.495 11.8C114.395 11.8 113.493 12.174 112.789 12.922C112.085 13.67 111.733 14.704 111.733 16.024C111.733 17.366 112.085 18.422 112.789 19.192C113.493 19.94 114.395 20.314 115.495 20.314ZM147.381 16.09C147.381 16.134 147.348 16.651 147.282 17.641H134.28C134.544 18.565 135.05 19.28 135.798 19.786C136.568 20.27 137.525 20.512 138.669 20.512C139.527 20.512 140.264 20.391 140.88 20.149C141.518 19.907 142.156 19.511 142.794 18.961L146.094 22.393C144.356 24.329 141.815 25.297 138.471 25.297C136.381 25.297 134.544 24.901 132.96 24.109C131.376 23.317 130.144 22.217 129.264 20.809C128.406 19.401 127.977 17.806 127.977 16.024C127.977 14.264 128.395 12.691 129.231 11.305C130.089 9.897 131.266 8.797 132.762 8.005C134.258 7.213 135.941 6.817 137.811 6.817C139.593 6.817 141.21 7.191 142.662 7.939C144.114 8.665 145.258 9.732 146.094 11.14C146.952 12.526 147.381 14.176 147.381 16.09ZM137.844 11.272C136.876 11.272 136.062 11.547 135.402 12.097C134.764 12.647 134.357 13.395 134.181 14.341H141.507C141.331 13.395 140.913 12.647 140.253 12.097C139.615 11.547 138.812 11.272 137.844 11.272Z" fill="#FC8181"/>
</svg>
