<svg width="100%" height="100%" viewBox="0 0 99 19" fill="none">
<path d="M84.2077 6.77653L92.0395 14.6083C92.4421 15.0109 93.0793 14.975 93.4619 14.5941L97.8287 10.2471C98.2113 9.86619 98.2487 9.23051 97.8461 8.82792L90.0144 0.996181C89.6118 0.593593 88.9746 0.629466 88.5919 1.01037L84.2252 5.35736C83.8425 5.73827 83.8051 6.37395 84.2077 6.77653Z" stroke="white"/>
<path d="M92.5867 6.8848H81.5109C80.9416 6.8848 80.5164 7.36074 80.5152 7.90065L80.5012 14.0622C80.4999 14.6021 80.923 15.078 81.4923 15.078H92.5681C93.1374 15.078 93.5626 14.6021 93.5639 14.0622L93.5779 7.90065C93.5791 7.36074 93.156 6.8848 92.5867 6.8848Z" stroke="white"/>
<path d="M5.42533 18.1757C4.39653 18.1757 3.43202 18.0954 2.53182 17.9349C1.64769 17.7905 0.884128 17.5738 0.241126 17.2849V13.9864C0.964503 14.3074 1.75218 14.5643 2.60416 14.7569C3.45614 14.9334 4.26793 15.0217 5.03953 15.0217C6.08441 15.0217 6.82386 14.9334 7.25789 14.7569C7.69191 14.5643 7.90893 14.179 7.90893 13.6012C7.90893 13.1999 7.7964 12.887 7.57135 12.6622C7.3463 12.4215 7.00069 12.2209 6.53451 12.0603C6.08441 11.8838 5.33692 11.643 4.29204 11.3381C3.21501 11.017 2.36303 10.6639 1.73611 10.2787C1.12525 9.87744 0.68319 9.40395 0.409914 8.85822C0.136638 8.29645 0 7.59824 0 6.76361C0 5.27089 0.530477 4.13931 1.59143 3.36888C2.66846 2.58239 4.23578 2.18915 6.29338 2.18915C7.14536 2.18915 7.99734 2.25335 8.84932 2.38176C9.71737 2.51016 10.4327 2.67067 10.9953 2.86328V6.18578C9.66111 5.6561 8.28669 5.39127 6.87208 5.39127C5.89151 5.39127 5.16009 5.48757 4.67784 5.68018C4.19559 5.85674 3.95446 6.20985 3.95446 6.73953C3.95446 7.07659 4.05091 7.34946 4.24381 7.55812C4.43671 7.75072 4.74214 7.92728 5.16009 8.08779C5.59412 8.23225 6.26927 8.42485 7.18555 8.66561C8.42333 9.00268 9.37979 9.40395 10.0549 9.86942C10.7462 10.3349 11.2204 10.8726 11.4776 11.4825C11.7509 12.0764 11.8875 12.7826 11.8875 13.6012C11.8875 15.0137 11.3409 16.1292 10.2478 16.9478C9.15474 17.7664 7.54724 18.1757 5.42533 18.1757Z" fill="#F7FAFC"/>
<path d="M17.9563 2.42991H25.6C27.3844 2.42991 28.7347 2.94353 29.6509 3.97078C30.5833 4.98197 31.0495 6.31418 31.0495 7.96741C31.0495 9.02676 30.8244 9.96572 30.3743 10.7843C29.9242 11.6029 29.2732 12.2449 28.4212 12.7104C27.5853 13.1598 26.6128 13.3845 25.5036 13.3845H21.8385V17.9349H17.9563V2.42991ZM24.6355 10.3991C25.4393 10.3991 26.0501 10.1824 26.4681 9.74904C26.886 9.29962 27.095 8.69772 27.095 7.94333C27.095 7.12475 26.9021 6.49877 26.5163 6.0654C26.1305 5.63203 25.5438 5.41534 24.7561 5.41534H21.8385V10.3991H24.6355Z" fill="#F7FAFC"/>
<path d="M36.6784 2.42991H40.5606V14.9495H47.8908V17.9349H36.6784V2.42991Z" fill="#F7FAFC"/>
<path d="M53.4932 2.42991H57.3753V17.9349H53.4932V2.42991Z" fill="#F7FAFC"/>
<path d="M67.5194 5.41534H62.9621V2.42991H75.9588V5.41534H71.4015V17.9349H67.5194V5.41534Z" fill="#F7FAFC"/>
</svg>
