<svg width="100%" height="100%" viewBox="0 0 100 20" fill="none">
    <path d="M91.8623 15.7846C92.3698 16.2922 93.1657 16.2417 93.6387 15.7709L98.0054 11.4239C98.4785 10.953 98.5308 10.1591 98.0233 9.65154L90.1916 1.81981C89.684 1.31228 88.8882 1.36273 88.4152 1.8336L84.0484 6.18058C83.5754 6.65144 83.523 7.44538 84.0306 7.95291L91.8623 15.7846Z" stroke="#4A5568" stroke-width="1.5"/>
    <path d="M81.5115 7.6348C80.7938 7.6348 80.2667 8.23323 80.2652 8.90065L80.2512 15.0622C80.2497 15.7296 80.774 16.328 81.4918 16.328H92.5675C93.2853 16.328 93.8124 15.7296 93.8139 15.0622L93.8279 8.90065C93.8294 8.23323 93.305 7.6348 92.5873 7.6348H81.5115Z" stroke="#4A5568" stroke-width="1.5"/>
    <path d="M5.42533 19.1757C4.39653 19.1757 3.43202 19.0954 2.53182 18.9349C1.64769 18.7905 0.884128 18.5738 0.241126 18.2849V14.9864C0.964503 15.3074 1.75218 15.5643 2.60416 15.7569C3.45614 15.9334 4.26793 16.0217 5.03953 16.0217C6.08441 16.0217 6.82386 15.9334 7.25789 15.7569C7.69191 15.5643 7.90893 15.179 7.90893 14.6012C7.90893 14.1999 7.7964 13.887 7.57135 13.6622C7.3463 13.4215 7.00069 13.2209 6.53451 13.0603C6.08441 12.8838 5.33692 12.643 4.29204 12.3381C3.21501 12.017 2.36303 11.6639 1.73611 11.2787C1.12525 10.8774 0.68319 10.4039 0.409914 9.85822C0.136638 9.29645 0 8.59824 0 7.76361C0 6.27089 0.530477 5.13931 1.59143 4.36888C2.66846 3.58239 4.23578 3.18915 6.29338 3.18915C7.14536 3.18915 7.99734 3.25335 8.84932 3.38176C9.71737 3.51016 10.4327 3.67067 10.9953 3.86328V7.18578C9.66111 6.6561 8.28669 6.39127 6.87208 6.39127C5.89151 6.39127 5.16009 6.48757 4.67784 6.68018C4.19559 6.85674 3.95446 7.20985 3.95446 7.73953C3.95446 8.07659 4.05091 8.34946 4.24381 8.55812C4.43671 8.75072 4.74214 8.92728 5.16009 9.08779C5.59412 9.23225 6.26927 9.42485 7.18555 9.66561C8.42333 10.0027 9.37979 10.4039 10.0549 10.8694C10.7462 11.3349 11.2204 11.8726 11.4776 12.4825C11.7509 13.0764 11.8875 13.7826 11.8875 14.6012C11.8875 16.0137 11.3409 17.1292 10.2478 17.9478C9.15474 18.7664 7.54724 19.1757 5.42533 19.1757Z" fill="#2D3748"/>
    <path d="M17.9563 3.42991H25.6C27.3844 3.42991 28.7347 3.94353 29.6509 4.97078C30.5833 5.98197 31.0495 7.31418 31.0495 8.96741C31.0495 10.0268 30.8244 10.9657 30.3743 11.7843C29.9242 12.6029 29.2732 13.2449 28.4212 13.7104C27.5853 14.1598 26.6128 14.3845 25.5036 14.3845H21.8385V18.9349H17.9563V3.42991ZM24.6355 11.3991C25.4393 11.3991 26.0501 11.1824 26.4681 10.749C26.886 10.2996 27.095 9.69772 27.095 8.94333C27.095 8.12475 26.9021 7.49877 26.5163 7.0654C26.1305 6.63203 25.5438 6.41534 24.7561 6.41534H21.8385V11.3991H24.6355Z" fill="#2D3748"/>
    <path d="M36.6784 3.42991H40.5606V15.9495H47.8908V18.9349H36.6784V3.42991Z" fill="#2D3748"/>
    <path d="M53.4932 3.42991H57.3753V18.9349H53.4932V3.42991Z" fill="#2D3748"/>
    <path d="M67.5194 6.41534H62.9621V3.42991H75.9588V6.41534H71.4015V18.9349H67.5194V6.41534Z" fill="#2D3748"/>
</svg>
